<?xml version="1.0" standalone="no"?>
<!DOCTYPE svg PUBLIC "-//W3C//DTD SVG 20010904//EN"
 "http://www.w3.org/TR/2001/REC-SVG-20010904/DTD/svg10.dtd">
<svg version="1.0" xmlns="http://www.w3.org/2000/svg"
 width="860.000000pt" height="668.000000pt" viewBox="0 0 860.000000 668.000000"
 preserveAspectRatio="xMidYMid meet">

<g transform="translate(0.000000,668.000000) scale(0.100000,-0.100000)"
fill="#000000" stroke="none">
<path d="M2700 6486 c0 -7 11 -21 25 -30 14 -9 34 -35 45 -57 12 -23 92 -110
183 -199 193 -188 348 -313 707 -566 91 -64 199 -145 240 -179 41 -34 113 -90
160 -126 47 -35 109 -85 138 -111 28 -27 96 -80 150 -120 53 -39 142 -108 198
-152 220 -176 439 -329 644 -451 63 -37 144 -86 180 -108 200 -124 390 -238
500 -301 84 -48 145 -92 189 -134 l65 -63 -70 -39 c-38 -21 -164 -77 -279
-125 -116 -48 -266 -113 -335 -145 -69 -32 -214 -97 -323 -145 -109 -47 -266
-122 -350 -167 -84 -44 -226 -119 -317 -166 -180 -94 -397 -226 -559 -341
-145 -103 -449 -348 -555 -447 -48 -46 -130 -112 -181 -147 l-93 -63 -124 60
c-67 33 -179 83 -248 112 -278 115 -479 203 -850 369 -150 67 -494 206 -645
260 -248 89 -280 98 -775 231 -137 37 -224 75 -234 101 -3 8 -1 24 6 36 18 36
249 272 345 354 125 107 1019 1009 1248 1259 337 368 400 439 486 538 203 235
244 286 327 416 196 306 234 439 143 493 -38 22 -143 24 -161 2 -23 -28 -4
-45 50 -45 77 0 93 -12 84 -63 -24 -149 -137 -297 -539 -711 -139 -144 -305
-319 -370 -391 -65 -71 -285 -303 -490 -515 -204 -212 -391 -407 -415 -435
-24 -27 -83 -90 -130 -140 -48 -49 -118 -128 -157 -175 -39 -47 -88 -101 -108
-120 -21 -19 -80 -85 -131 -147 -51 -61 -120 -134 -153 -163 -145 -126 -157
-222 -37 -299 26 -16 109 -46 198 -71 161 -46 504 -166 697 -245 180 -73 719
-300 796 -335 132 -60 350 -142 610 -230 232 -78 348 -125 508 -206 27 -13 59
-24 71 -24 32 0 227 135 670 466 182 136 354 249 526 347 213 122 658 352 873
453 98 46 231 111 295 146 64 34 153 80 197 102 44 21 132 67 195 102 63 34
171 91 240 126 137 69 156 89 138 141 -6 17 -42 62 -79 101 -52 55 -94 86
-181 136 -118 66 -134 77 -338 224 -69 50 -234 163 -367 253 -264 177 -475
332 -623 458 -52 45 -126 105 -165 135 -38 30 -101 82 -140 115 -38 34 -115
96 -170 137 -55 42 -131 101 -169 131 -38 31 -146 107 -240 170 -386 257 -552
374 -663 467 -194 163 -299 247 -320 258 -29 16 -43 15 -43 -2z"/>
<path d="M5510 3405 c-9 -11 -8 -20 8 -42 33 -47 108 -204 135 -283 14 -41 42
-136 61 -210 64 -241 260 -593 384 -687 87 -66 254 -92 371 -57 29 8 54 14 55
12 46 -77 168 -202 251 -258 195 -131 360 -209 531 -252 75 -18 117 -22 269
-22 104 0 205 5 240 13 33 6 97 16 141 21 45 5 99 13 120 19 l39 10 -3 57 -4
56 -55 -7 c-30 -4 -78 -13 -107 -21 -71 -20 -455 -31 -555 -15 -112 18 -251
67 -399 142 -163 83 -241 138 -322 226 -61 67 -62 68 -40 83 124 86 254 283
296 449 11 45 15 95 12 175 -3 100 -6 117 -33 171 -35 69 -63 87 -136 87 -90
0 -155 -67 -229 -240 -64 -147 -81 -221 -86 -367 -5 -123 2 -181 30 -246 10
-22 -53 -39 -146 -39 -163 0 -265 95 -403 377 -41 84 -93 204 -114 267 -58
168 -185 461 -231 534 -40 63 -58 74 -80 47z m1324 -414 c31 -34 45 -93 46
-187 0 -101 -15 -166 -62 -259 -64 -127 -209 -303 -241 -292 -26 8 -38 90 -34
242 3 138 6 158 36 245 39 114 90 209 132 244 38 32 97 35 123 7z"/>
<path d="M4934 3065 c-9 -13 -28 -69 -43 -122 -26 -96 -26 -103 -23 -373 4
-473 99 -1346 202 -1855 52 -258 68 -390 52 -414 -9 -12 -34 -12 -164 -3 -84
7 -211 21 -283 33 -106 17 -188 22 -445 26 -312 5 -504 -3 -815 -32 -559 -54
-1062 -70 -1485 -50 -162 8 -395 18 -517 21 -122 4 -228 11 -235 15 -10 6 -13
42 -13 136 1 124 2 134 53 308 80 278 81 283 164 875 37 266 42 327 42 475 -2
260 -35 423 -108 518 -40 52 -77 72 -113 60 -36 -12 -64 -53 -66 -94 -3 -50
26 -50 46 1 32 83 95 37 140 -105 20 -63 22 -90 22 -265 -1 -184 -3 -208 -43
-425 -22 -126 -57 -345 -77 -485 -20 -140 -52 -334 -70 -430 -68 -345 -81
-500 -49 -579 22 -57 59 -71 181 -71 178 0 445 -20 688 -51 39 -5 192 -13 340
-19 356 -14 727 2 1170 50 489 52 1010 63 1310 25 74 -9 182 -14 249 -13 116
3 119 4 139 30 32 43 27 156 -21 408 -40 214 -55 328 -67 510 -3 52 -17 187
-31 300 -14 113 -33 295 -44 405 -10 110 -28 279 -40 375 -14 120 -20 237 -20
375 0 179 3 212 26 318 21 94 24 120 14 132 -19 22 -48 18 -66 -10z"/>
</g>
</svg>
